<?xml version="1.0" standalone="no"?>
<!DOCTYPE svg PUBLIC "-//W3C//DTD SVG 1.1//EN" "http://www.w3.org/Graphics/SVG/1.1/DTD/svg11.dtd" >
<svg xmlns="http://www.w3.org/2000/svg" xmlns:xlink="http://www.w3.org/1999/xlink" version="1.1">
<metadata></metadata>
<defs>
<font id="uni_sansheavy_caps" horiz-adv-x="1204" >
<font-face units-per-em="2048" ascent="1548" descent="-500" />
<missing-glyph horiz-adv-x="372" />
<glyph horiz-adv-x="0" />
<glyph unicode="&#xd;" horiz-adv-x="681" />
<glyph unicode=" "  horiz-adv-x="372" />
<glyph unicode="&#x09;" horiz-adv-x="372" />
<glyph unicode="&#xa0;" horiz-adv-x="372" />
<glyph unicode="!" horiz-adv-x="595" d="M88 1458h418l-21 -1007h-376zM96 182q0 86 59.5 146.5t143.5 60.5q86 0 146.5 -60.5t60.5 -146.5q0 -84 -60.5 -143t-146.5 -59q-84 0 -143.5 59t-59.5 143z" />
<glyph unicode="&#x22;" horiz-adv-x="946" d="M96 858v594h355l-43 -594h-312zM516 858v594h354l-41 -594h-313z" />
<glyph unicode="#" horiz-adv-x="1327" d="M45 346l88 299h152l18 68h-151l92 311h151l97 330h323l-96 -330h86l96 330h338l-98 -330h135l-90 -311h-137l-19 -68h135l-88 -299h-137l-102 -348h-324l100 348h-86l-100 -348h-334l103 348h-152zM596 618h121l33 121h-119z" />
<glyph unicode="$" horiz-adv-x="1167" d="M49 283l262 180q63 -88 150 -101v199q-391 92 -387 453q8 164 116.5 271.5t270.5 141.5v121h264v-118q111 -14 192.5 -69.5t161.5 -174.5l-245 -156q-35 59 -109 74v-230q90 -23 156.5 -53t124 -82.5t86 -136.5t22.5 -196q-12 -158 -120.5 -262.5t-268.5 -143.5v-133 h-264v131q-252 10 -412 285zM397 1010q-4 -92 78 -121v233q-78 -42 -78 -110v-2zM713 334q78 42 78 110v2q4 92 -78 121v-233z" />
<glyph unicode="%" horiz-adv-x="1515" d="M53 1112q0 162 85 260t218 98q150 0 230 -94t80 -268q0 -166 -87 -264.5t-223 -98.5q-145 0 -224 94.5t-79 272.5zM113 14l1007 1557l264 -176l-1007 -1551zM282.5 1110q0.5 -121 71.5 -121q68 0 68 119q0 123 -68 123q-72 0 -71.5 -121zM852 354q0 162 85 260.5 t218 98.5q150 0 229.5 -94.5t79.5 -268.5q0 -166 -87 -264t-222 -98q-145 0 -224 94t-79 272zM1081 352q0 -121 72 -121q68 0 68 119q0 123 -68 123q-72 0 -72 -121z" />
<glyph unicode="&#x26;" horiz-adv-x="1396" d="M59 461q0 236 217 364q-90 94 -103 211t37 211t155.5 156.5t234.5 58.5q162 -4 277.5 -108.5t115.5 -268.5q0 -211 -176 -333l121 -150l131 113l205 -262l-135 -111l272 -340h-430l-98 117q-109 -96 -253.5 -119t-270.5 21.5t-213 161t-87 278.5zM414 475 q-15 -65 22 -110q39 -55 112 -55t122 55l-178 208q-63 -33 -78 -98zM498 1079q0 -35 75 -127q100 68 101 133q0 35 -23.5 62t-56.5 27q-39 0 -67.5 -28t-28.5 -67z" />
<glyph unicode="'" horiz-adv-x="524" d="M96 856v594h348l-30 -594h-318z" />
<glyph unicode="(" horiz-adv-x="659" d="M59 711q0 248 85 491.5t245 425.5l242 -158q-250 -379 -247 -770t253 -776l-260 -174q-156 219 -237 470t-81 491z" />
<glyph unicode=")" horiz-adv-x="647" d="M25 -80q242 387 246 777.5t-246 750.5l233 156q162 -184 246 -417t84 -476q0 -242 -81 -491t-237 -466z" />
<glyph unicode="*" horiz-adv-x="976" d="M49 1010l94 323l209 -98l-30 219h335l-39 -217l213 92l97 -325l-230 -29l166 -160l-264 -203l-111 207l-106 -207l-274 199l165 172z" />
<glyph unicode="+" horiz-adv-x="1159" d="M55 483v348h359v349h346v-349h344v-348h-344v-350h-346v350h-359z" />
<glyph unicode="," horiz-adv-x="589" d="M-45 -305l174 522h385l-205 -522h-354z" />
<glyph unicode="-" horiz-adv-x="827" d="M94 420v348h639v-348h-639z" />
<glyph unicode="." horiz-adv-x="526" d="M59 195q0 84 59.5 143t143.5 59t144.5 -59t60.5 -143q0 -86 -60.5 -146.5t-144.5 -60.5t-143.5 60.5t-59.5 146.5z" />
<glyph unicode="/" horiz-adv-x="1007" d="M41 -27l604 1592l322 -113l-602 -1595z" />
<glyph unicode="0" horiz-adv-x="1220" d="M86 424v600q0 215 158.5 330.5t365.5 115.5q209 0 367 -115.5t158 -330.5v-600q0 -145 -81 -249.5t-197 -149.5t-247 -45t-245.5 45t-196.5 149.5t-82 249.5zM434 420q0 -59 52.5 -94t123.5 -35q70 0 123 34.5t53 94.5v594q0 61 -54 98t-122 37q-70 0 -123 -37t-53 -98 v-594z" />
<glyph unicode="1" horiz-adv-x="763" d="M-2 1044l385 406h276v-1450h-329v973l-140 -96z" />
<glyph unicode="2" horiz-adv-x="1140" d="M33 193l590 663q96 109 43 205q-41 76 -131 74q-121 -1 -199 -144l-275 150q86 164 222.5 246.5t291.5 82.5q227 0 356.5 -132t129.5 -314q0 -238 -180 -406l-320 -303l170 35h328v-348h-934z" />
<glyph unicode="3" horiz-adv-x="1105" d="M33 242l237 219q76 -123 234 -123q76 0 129 34t53 91q0 59 -41 99t-117 40h-225v293h217q68 0 94.5 66.5t-8.5 111.5q-51 74 -157.5 63.5t-176.5 -89.5l-213 188q88 111 211 173t246 62q334 0 436 -253q49 -102 25.5 -239.5t-127.5 -203.5q102 -51 148 -146.5t46 -193.5 q0 -203 -157.5 -328.5t-368.5 -125.5q-147 0 -277 65.5t-208 196.5z" />
<glyph unicode="4" horiz-adv-x="1175" d="M0 530l676 920h301v-838h135v-297h-135v-315h-350v315h-510zM397 608h256l4 371z" />
<glyph unicode="5" horiz-adv-x="1107" d="M57 248l260 205q66 -80 156 -97.5t156.5 27.5t70.5 127q6 104 -48 159.5t-142 55.5q-145 0 -236 -121h-168v846h861v-322h-568v-163q180 57 326.5 19t240 -166t93.5 -300q0 -221 -140.5 -379.5t-406.5 -158.5q-131 0 -251 66.5t-204 201.5z" />
<glyph unicode="6" horiz-adv-x="1196" d="M84 436v578q0 207 163 331.5t378 124.5q150 0 271.5 -67.5t184.5 -200.5l-256 -147q-63 102 -200 102q-78 0 -134.5 -40t-56.5 -105v-150q102 72 229.5 80t234 -39t179 -148.5t72.5 -232.5v-86q0 -213 -155.5 -334.5t-372.5 -121.5q-219 0 -378 121.5t-159 334.5z M434 424q0 -78 91 -109.5t182.5 0t91.5 109.5v108q0 72 -91.5 102t-182.5 0t-91 -102v-108z" />
<glyph unicode="7" horiz-adv-x="1085" d="M47 1102v348h936l98 -197l-559 -1253h-393l471 1102h-553z" />
<glyph unicode="8" horiz-adv-x="1228" d="M61 436q0 193 195 338q-127 84 -127 260q0 119 47 209t122 137t151.5 68.5t152.5 21.5h29q199 0 336 -111.5t137 -338.5q0 -55 -34 -130t-91 -114q92 -47 141 -140t47 -179q-4 -227 -138 -352t-398 -125h-29q-252 0 -396.5 119.5t-144.5 336.5zM446.5 403.5 q40.5 -79.5 153.5 -81.5h35q115 0 157 81.5t-4.5 159.5t-146.5 70h-47q-96 2 -142 -74t-5.5 -155.5zM477 1097.5q-35 -71.5 4 -142t133 -70.5q63 0 106.5 28.5t52.5 69.5t0 82t-47 71.5t-93 34.5h-31q-90 -2 -125 -73.5z" />
<glyph unicode="9" d="M55 936v86q0 213 155 330.5t374 117.5t376.5 -117.5t159.5 -330.5v-578q0 -213 -160.5 -338.5t-375.5 -125.5q-160 0 -294 69.5t-200 206.5l260 172q74 -121 230 -121q78 0 134 40t56 99v150q-102 -74 -229 -82t-233.5 40t-179.5 149.5t-73 232.5zM406 926 q0 -72 91 -101.5t182 0t91 101.5v108q0 72 -91 101.5t-182 0t-91 -101.5v-108z" />
<glyph unicode=":" horiz-adv-x="567" d="M80 217q0 88 59.5 146.5t145.5 58.5t144 -58.5t58 -146.5q0 -84 -59 -144.5t-143 -60.5t-144.5 60.5t-60.5 144.5zM80 805q0 84 60.5 142.5t144.5 58.5t143 -58.5t59 -142.5q0 -86 -59 -146.5t-143 -60.5t-144.5 60.5t-60.5 146.5z" />
<glyph unicode=";" horiz-adv-x="598" d="M14 -262l125 522h383l-188 -522h-320zM92 782q0 86 57.5 143.5t147.5 57.5q86 0 143.5 -57.5t57.5 -143.5q0 -88 -57.5 -147.5t-143.5 -59.5q-90 0 -147.5 59.5t-57.5 147.5z" />
<glyph unicode="&#x3c;" horiz-adv-x="911" d="M51 487v224l750 481v-408l-330 -186q154 -82 330 -178v-408z" />
<glyph unicode="=" horiz-adv-x="1083" d="M96 236v319h889v-319h-889zM96 653v318h889v-318h-889z" />
<glyph unicode="&#x3e;" horiz-adv-x="911" d="M109 12v408l346 178l-346 186v408l751 -481v-224z" />
<glyph unicode="?" horiz-adv-x="1005" d="M43 1196q72 137 189.5 209t239.5 66.5t231.5 -56.5t179 -159.5t69.5 -243.5q0 -145 -90 -262t-262 -142l-20 -239h-308l-20 467q131 -55 235.5 -7t104.5 160q0 72 -66.5 108t-150.5 15.5t-123 -94.5zM240 133q0 80 53 132t133 52q78 0 131 -52t53 -132q0 -78 -53 -132 t-131 -54t-132 54t-54 132z" />
<glyph unicode="@" horiz-adv-x="1556" d="M70 698q14 188 104 357.5t259 282t376 112.5q111 0 215 -27q133 -39 247.5 -126t170.5 -191q92 -178 52 -403.5t-189 -354.5q-49 -45 -124 -74.5t-149 -29.5q-88 0 -149 43q-63 -39 -146 -39q-160 0 -261 112.5t-101 282.5q0 197 116.5 347.5t280.5 150.5q115 0 215 -82 l37 43l147 -37q-49 70 -148 106.5t-196 36.5q-158 0 -276.5 -86t-176 -212t-57.5 -265q0 -246 172.5 -374t428.5 -50l55 -196q-137 -43 -256 -43q-281 0 -471.5 200.5t-175.5 515.5zM641 684q-4 -92 45 -152q31 -32 82 -32q59 0 92 32l66 302q-109 115 -203 34 q-76 -61 -82 -184zM1110 489q76 35 117 127.5t39 192.5t-41 168l-19 37z" />
<glyph unicode="A" horiz-adv-x="1327" d="M-12 0l506 1450h333l519 -1450h-394l-94 291h-387l-90 -291h-393zM553 616h217l-100 424h-11z" />
<glyph unicode="B" horiz-adv-x="1277" d="M115 0v1450h581q213 0 345 -120q126 -114 126 -305v-17q-2 -59 -39.5 -129t-109.5 -107q133 -68 178 -180q32 -80 33 -157q0 -30 -6 -60q-59 -375 -516 -375h-592zM483 322h213q104 0 146 74q21 37 22 74q0 36 -22 74q-43 74 -146 74h-213v-296zM483 883h213q84 1 120 65 q18 33 18 65q0 31 -17 63q-35 64 -121 65h-213v-258z" />
<glyph unicode="C" horiz-adv-x="1191" d="M80 475v500q0 158 85 272.5t214 168.5t278 54q154 0 292 -77.5t218 -255.5l-299 -121q-46 86 -150 110q-36 8 -70 8q-63 0 -118 -29q-84 -44 -84 -130v-500q0 -63 52 -104q54 -41 122 -49q13 -1 25 -1l111 27q68 33 98 105l320 -148q-57 -113 -148.5 -188.5t-184.5 -106 t-190 -30.5q-231 0 -401 131t-170 364z" />
<glyph unicode="D" horiz-adv-x="1302" d="M115 0v1450h542q152 0 276 -49t206 -162t82 -274v-488q0 -235 -163 -357q-160 -120 -393 -120h-8h-542zM483 344h187q90 0 136 42t46 116v452q0 72 -46 113t-136 41h-187v-764z" />
<glyph unicode="E" d="M115 0v1450h1009v-344h-639v-225h588v-318h-588v-217h639v-346h-1009z" />
<glyph unicode="F" horiz-adv-x="1179" d="M115 0v1450h1009v-348h-639v-260h559v-342h-559v-500h-370z" />
<glyph unicode="G" horiz-adv-x="1275" d="M80 481v498q0 231 170 361t403 130q100 0 192.5 -27.5t178.5 -99t133 -182.5l-307 -141q-29 70 -96 102q-54 25 -108 25l-28 -2q-67 -8 -119.5 -53t-52.5 -113v-498q0 -80 67 -126t145.5 -46t145 46t66.5 126v54h-231v307h584v-361q0 -238 -167 -369.5t-403 -131.5 q-233 0 -403 133t-170 368z" />
<glyph unicode="H" horiz-adv-x="1384" d="M115 0v1450h368v-549h418v549h369v-1450h-369v547h-418v-547h-368z" />
<glyph unicode="I" horiz-adv-x="595" d="M115 0v1450h366v-1450h-366z" />
<glyph unicode="J" horiz-adv-x="1202" d="M6 426l346 72q14 -82 73.5 -123t133.5 -41q70 0 123 39t53 100v645h-329v332h692v-977q0 -225 -166 -359t-387 -134q-203 0 -356.5 114.5t-182.5 331.5z" />
<glyph unicode="K" horiz-adv-x="1310" d="M115 0v1450h368v-537l394 537h456l-573 -700l571 -750h-465l-370 518l-13 -16v-502h-368z" />
<glyph unicode="L" horiz-adv-x="1101" d="M115 0v1450h368v-1088h590v-362h-958z" />
<glyph unicode="M" horiz-adv-x="1574" d="M115 0v1450h366l305 -709l308 709h366v-1450h-368l2 418l22 293l-12 2l-191 -498h-251l-195 498l-10 -2l24 -293v-418h-366z" />
<glyph unicode="N" horiz-adv-x="1384" d="M115 0v1450h348l350 -619l123 -290l10 2l-20 125q-18 125 -21 125v657h365v-1450h-371l-328 571l-127 291l-10 -2l47 -280v-580h-366z" />
<glyph unicode="O" horiz-adv-x="1361" d="M80 477v496q0 236 177 366.5t423 130.5q244 0 423 -131t179 -366v-496q0 -236 -178 -366.5t-422 -130.5t-423 130.5t-179 366.5zM446 477q0 -76 70 -117t166 -41q94 0 163.5 42t69.5 116v496q0 80 -70.5 122t-168.5 42q-92 0 -161 -44t-69 -120v-496z" />
<glyph unicode="P" horiz-adv-x="1265" d="M115 0v1450h579q250 0 390.5 -151.5t140.5 -360.5t-140.5 -361.5t-388.5 -152.5h-215v-424h-366zM481 750h213q63 0 106 36q44 36 54 90q5 27 5 53.5t-5 52.5q-10 52 -53 89t-107 37h-213v-358z" />
<glyph unicode="Q" horiz-adv-x="1361" d="M80 477v496q0 236 177 366.5t423 130.5q244 0 423 -131t179 -366v-496q0 -141 -74 -256l113 -115l-203 -182l-119 123q-141 -67 -312 -67h-5q-244 0 -423 130.5t-179 366.5zM446 477q0 -96 96 -145q54 -27 107 -27q41 0 82 17l-119 122l203 177l100 -103v455 q0 80 -73 124q-72 43 -157 43h-4q-87 -1 -161 -45t-74 -122v-496z" />
<glyph unicode="R" horiz-adv-x="1323" d="M115 0v1450h579q240 0 386.5 -116.5t151.5 -360.5q0 -385 -284 -475l395 -498h-456l-336 461h-66v-461h-370zM485 776h215q109 0 154 83q22 42 22 83.5t-22 82.5q-45 83 -154 83h-215v-332z" />
<glyph unicode="S" horiz-adv-x="1155" d="M45 242l231 217q41 -51 103.5 -86t124.5 -45q40 -7 78 -7q20 -1 38 1q56 6 93 34q39 30 39 77q0 55 -72 91q-74 37 -176 51q-190 31 -318.5 149t-128.5 312q0 203 155 318.5t370 115.5q305 0 495 -231l-239 -184q-74 77 -172 105q-46 13 -86 13q-48 0 -86 -17 q-72 -32 -74 -114q6 -94 192 -135q88 -16 153.5 -34.5t137.5 -56.5t116 -88q45 -50 71 -131q23 -70 22 -157v-26q-6 -133 -95 -235.5t-215 -150.5t-263 -48q-133 0 -264.5 67.5t-229.5 194.5z" />
<glyph unicode="T" horiz-adv-x="1198" d="M29 1104v348h1140v-348h-385v-1104h-370v1104h-385z" />
<glyph unicode="U" horiz-adv-x="1366" d="M106 485v965h371v-965q0 -66 43 -111q44 -46 104 -56q30 -5 60 -6q32 0 62 6q62 10 104.5 56t42.5 111v965h371v-965q0 -111 -40 -201.5t-107.5 -150t-155 -101.5t-182.5 -50q-48 -4 -95 -4q-48 0 -96 4q-96 8 -183.5 50t-154 101.5t-105.5 150.5t-39 201z" />
<glyph unicode="V" horiz-adv-x="1343" d="M-18 1452h393l227 -709l66 -344h6l65 342l230 711h393l-522 -1450h-336z" />
<glyph unicode="W" horiz-adv-x="1873" d="M0 1450h381l172 -694l37 -307h10l35 305l162 508h278l150 -510l47 -303h6l41 303l176 698h379l-418 -1450h-340l-129 401l-51 332h-6l-56 -330l-114 -403h-340z" />
<glyph unicode="X" horiz-adv-x="1343" d="M-6 0l407 723l-407 727h428l248 -496l254 496h426l-406 -727l406 -723h-426l-254 494l-248 -494h-428z" />
<glyph unicode="Y" horiz-adv-x="1341" d="M-18 1450h426l262 -532l262 532h430l-508 -879v-571h-367v571z" />
<glyph unicode="Z" horiz-adv-x="1239" d="M29 135l626 975h-581v340h1054l78 -123l-624 -993l589 4v-338h-1075z" />
<glyph unicode="[" horiz-adv-x="671" d="M102 -205v1659h492v-340h-141v-981h141v-338h-492z" />
<glyph unicode="\" horiz-adv-x="1030" d="M39 1456l330 115l622 -1579l-325 -111z" />
<glyph unicode="]" horiz-adv-x="671" d="M78 129h137v991h-137v334h491v-1659h-491v334z" />
<glyph unicode="^" horiz-adv-x="1335" d="M53 827l506 621h201l520 -621h-424l-199 236l-194 -236h-410z" />
<glyph unicode="_" horiz-adv-x="1214" d="M92 70h1032v-346h-1032v346z" />
<glyph unicode="`" horiz-adv-x="831" d="M41 1888h381l205 -340h-318z" />
<glyph unicode="a" horiz-adv-x="1327" d="M-12 0l506 1450h333l519 -1450h-394l-94 291h-387l-90 -291h-393zM553 616h217l-100 424h-11z" />
<glyph unicode="b" horiz-adv-x="1277" d="M115 0v1450h581q213 0 345 -120q126 -114 126 -305v-17q-2 -59 -39.5 -129t-109.5 -107q133 -68 178 -180q32 -80 33 -157q0 -30 -6 -60q-59 -375 -516 -375h-592zM483 322h213q104 0 146 74q21 37 22 74q0 36 -22 74q-43 74 -146 74h-213v-296zM483 883h213q84 1 120 65 q18 33 18 65q0 31 -17 63q-35 64 -121 65h-213v-258z" />
<glyph unicode="c" horiz-adv-x="1191" d="M80 475v500q0 158 85 272.5t214 168.5t278 54q154 0 292 -77.5t218 -255.5l-299 -121q-46 86 -150 110q-36 8 -70 8q-63 0 -118 -29q-84 -44 -84 -130v-500q0 -63 52 -104q54 -41 122 -49q13 -1 25 -1l111 27q68 33 98 105l320 -148q-57 -113 -148.5 -188.5t-184.5 -106 t-190 -30.5q-231 0 -401 131t-170 364z" />
<glyph unicode="d" horiz-adv-x="1302" d="M115 0v1450h542q152 0 276 -49t206 -162t82 -274v-488q0 -235 -163 -357q-160 -120 -393 -120h-8h-542zM483 344h187q90 0 136 42t46 116v452q0 72 -46 113t-136 41h-187v-764z" />
<glyph unicode="e" d="M115 0v1450h1009v-344h-639v-225h588v-318h-588v-217h639v-346h-1009z" />
<glyph unicode="f" horiz-adv-x="1179" d="M115 0v1450h1009v-348h-639v-260h559v-342h-559v-500h-370z" />
<glyph unicode="g" horiz-adv-x="1275" d="M80 481v498q0 231 170 361t403 130q100 0 192.5 -27.5t178.5 -99t133 -182.5l-307 -141q-29 70 -96 102q-54 25 -108 25l-28 -2q-67 -8 -119.5 -53t-52.5 -113v-498q0 -80 67 -126t145.5 -46t145 46t66.5 126v54h-231v307h584v-361q0 -238 -167 -369.5t-403 -131.5 q-233 0 -403 133t-170 368z" />
<glyph unicode="h" horiz-adv-x="1384" d="M115 0v1450h368v-549h418v549h369v-1450h-369v547h-418v-547h-368z" />
<glyph unicode="i" horiz-adv-x="595" d="M115 0v1450h366v-1450h-366z" />
<glyph unicode="j" horiz-adv-x="1202" d="M6 426l346 72q14 -82 73.5 -123t133.5 -41q70 0 123 39t53 100v645h-329v332h692v-977q0 -225 -166 -359t-387 -134q-203 0 -356.5 114.5t-182.5 331.5z" />
<glyph unicode="k" horiz-adv-x="1310" d="M115 0v1450h368v-537l394 537h456l-573 -700l571 -750h-465l-370 518l-13 -16v-502h-368z" />
<glyph unicode="l" horiz-adv-x="1101" d="M115 0v1450h368v-1088h590v-362h-958z" />
<glyph unicode="m" horiz-adv-x="1574" d="M115 0v1450h366l305 -709l308 709h366v-1450h-368l2 418l22 293l-12 2l-191 -498h-251l-195 498l-10 -2l24 -293v-418h-366z" />
<glyph unicode="n" horiz-adv-x="1384" d="M115 0v1450h348l350 -619l123 -290l10 2l-20 125q-18 125 -21 125v657h365v-1450h-371l-328 571l-127 291l-10 -2l47 -280v-580h-366z" />
<glyph unicode="o" horiz-adv-x="1361" d="M80 477v496q0 236 177 366.5t423 130.5q244 0 423 -131t179 -366v-496q0 -236 -178 -366.5t-422 -130.5t-423 130.5t-179 366.5zM446 477q0 -76 70 -117t166 -41q94 0 163.5 42t69.5 116v496q0 80 -70.5 122t-168.5 42q-92 0 -161 -44t-69 -120v-496z" />
<glyph unicode="p" horiz-adv-x="1265" d="M115 0v1450h579q250 0 390.5 -151.5t140.5 -360.5t-140.5 -361.5t-388.5 -152.5h-215v-424h-366zM481 750h213q63 0 106.5 36.5t53.5 89.5q5 27 5 53.5t-5 52.5q-10 52 -53 89t-107 37h-213v-358z" />
<glyph unicode="q" horiz-adv-x="1361" d="M80 477v496q0 236 177 366.5t423 130.5q244 0 423 -131t179 -366v-496q0 -141 -74 -256l113 -115l-203 -182l-119 123q-141 -67 -312 -67h-5q-244 0 -423 130.5t-179 366.5zM446 477q0 -96 96 -145q54 -27 107 -27q41 0 82 17l-119 122l203 177l100 -103v455 q0 80 -73 124q-72 43 -157 43h-4q-87 -1 -161 -45t-74 -122v-496z" />
<glyph unicode="r" horiz-adv-x="1323" d="M115 0v1450h579q240 0 386.5 -116.5t151.5 -360.5q0 -385 -284 -475l395 -498h-456l-336 461h-66v-461h-370zM485 776h215q109 0 154 83q22 42 22 83.5t-22 82.5q-45 83 -154 83h-215v-332z" />
<glyph unicode="s" horiz-adv-x="1155" d="M45 242l231 217q41 -51 103.5 -86t124.5 -45q40 -7 78 -7q20 -1 38 1q56 6 93 34q39 30 39 77q0 55 -72 91q-74 37 -176 51q-190 31 -318.5 149t-128.5 312q0 203 155 318.5t370 115.5q305 0 495 -231l-239 -184q-74 77 -172 105q-46 13 -86 13q-48 0 -86 -17 q-72 -32 -74 -114q6 -94 192 -135q88 -16 153.5 -34.5t137.5 -56.5t116 -88q45 -50 71 -131q23 -70 22 -157v-26q-6 -133 -95 -235.5t-215 -150.5t-263 -48q-133 0 -264.5 67.5t-229.5 194.5z" />
<glyph unicode="t" horiz-adv-x="1198" d="M29 1104v348h1140v-348h-385v-1104h-370v1104h-385z" />
<glyph unicode="u" horiz-adv-x="1366" d="M106 485v965h371v-965q0 -66 43 -111q44 -46 104 -56q30 -5 60 -6q32 0 62 6q62 10 104.5 56t42.5 111v965h371v-965q0 -111 -40 -201.5t-107.5 -150t-155 -101.5t-182.5 -50q-48 -4 -95 -4q-48 0 -96 4q-96 8 -183.5 50t-154 101.5t-105.5 150.5t-39 201z" />
<glyph unicode="v" horiz-adv-x="1343" d="M-18 1452h393l227 -709l66 -344h6l65 342l230 711h393l-522 -1450h-336z" />
<glyph unicode="w" horiz-adv-x="1873" d="M0 1450h381l172 -694l37 -307h10l35 305l162 508h278l150 -510l47 -303h6l41 303l176 698h379l-418 -1450h-340l-129 401l-51 332h-6l-56 -330l-114 -403h-340z" />
<glyph unicode="x" horiz-adv-x="1343" d="M-6 0l407 723l-407 727h428l248 -496l254 496h426l-406 -727l406 -723h-426l-254 494l-248 -494h-428z" />
<glyph unicode="y" horiz-adv-x="1341" d="M-18 1450h426l262 -532l262 532h430l-508 -879v-571h-367v571z" />
<glyph unicode="z" horiz-adv-x="1239" d="M29 135l626 975h-581v340h1054l78 -123l-624 -993l589 4v-338h-1075z" />
<glyph unicode="{" horiz-adv-x="718" d="M59 446v334q111 0 111 107v250q0 154 68.5 235.5t234.5 81.5h168v-334h-121v-264q0 -70 -42 -143.5t-105 -98.5q70 -25 108.5 -94t38.5 -149v-242h121v-334h-184q-162 0 -224.5 79t-62.5 237v227q0 109 -111 108z" />
<glyph unicode="|" horiz-adv-x="550" d="M102 -276v1759h347v-1759h-347z" />
<glyph unicode="}" horiz-adv-x="704" d="M80 113h104v258q-4 76 44 148.5t114 96.5q-63 31 -113.5 99.5t-44.5 140.5v260h-104v334h141q195 0 253 -76t58 -241v-246q0 -106 113 -107v-334q-113 0 -113 -108v-244q0 -160 -66.5 -237.5t-248.5 -77.5h-137v334z" />
<glyph unicode="~" horiz-adv-x="999" d="M51 590q160 233 320 233q47 0 94 -23.5t78.5 -47t64.5 -38t65.5 5.5t67.5 81l209 -174q-147 -252 -329 -252q-49 0 -103.5 28.5t-87.5 53t-74 15.5t-77 -73z" />
<glyph unicode="&#xa2;" horiz-adv-x="978" d="M82 375v309q0 150 86 245t221 128v145h262v-149q199 -59 258 -271l-291 -90q-8 37 -30.5 60.5t-50 27.5t-55 -2t-45 -29.5t-17.5 -56.5v-323q0 -53 44 -78t96 -4.5t71 80.5l299 -68q-70 -223 -279 -291v-149h-262v143q-135 33 -221 128t-86 245z" />
<glyph unicode="&#xa3;" horiz-adv-x="1085" d="M76 0v324h160v229h-160v313h160v154q0 78 22.5 150.5t70.5 138t137 105.5t210 40q86 0 181 -42t169 -128l-203 -194q-63 70 -150 43t-87 -123v-144h344v-313h-344v-229h422v-324h-932z" />
<glyph unicode="&#xa5;" horiz-adv-x="1458" d="M39 1450h426l262 -553l262 553h430l-411 -711h145l-47 -221h-195v-63h242l-47 -222h-195v-233h-366v233h-223l45 222h178v63h-223l45 221h82z" />
<glyph unicode="&#xa8;" horiz-adv-x="1044" d="M102 1708q0 74 50.5 124t122 50t121.5 -50t50 -124q0 -72 -50 -121t-121.5 -49t-122 49t-50.5 121zM596 1708q0 74 49 124t123 50t124 -50t50 -124q0 -72 -50 -121t-124 -49t-123 49t-49 121z" />
<glyph unicode="&#xa9;" horiz-adv-x="1593" d="M61 719q0 303 217.5 519t520.5 216t518 -216t215 -519t-215 -519t-518 -216q-305 0 -521.5 216t-216.5 519zM272 719q0 -219 154 -372.5t373 -153.5q217 0 369.5 153.5t152.5 372.5t-152.5 371.5t-369.5 152.5q-219 0 -373 -152.5t-154 -371.5zM406 600 q0 -164 116.5 -252t276.5 -88q131 0 242.5 63.5t148.5 196.5l-197 74q-14 -53 -56 -87t-93 -39t-100.5 5t-84 44t-41.5 81v231q6 47 41 81t84.5 44.5t100.5 5t93 -39t56 -86.5l193 73q-37 133 -146.5 196.5t-240.5 63.5q-160 0 -276.5 -88t-116.5 -252v-227z" />
<glyph unicode="&#xab;" horiz-adv-x="1253" d="M39 588l328 485l297 -176l-211 -309l213 -314l-301 -176zM567 588l328 485l297 -176l-213 -313l217 -308l-301 -178z" />
<glyph unicode="&#xad;" horiz-adv-x="827" d="M94 420v348h639v-348h-639z" />
<glyph unicode="&#xae;" horiz-adv-x="1593" d="M61 719q0 303 217.5 519t520.5 216t518 -216t215 -519t-215 -519t-518 -216q-305 0 -521.5 216t-216.5 519zM281 719q0 -215 152.5 -368.5t369.5 -153.5q213 0 365.5 153.5t152.5 368.5t-152.5 367.5t-365.5 152.5q-217 0 -369.5 -151.5t-152.5 -368.5zM500 346v733h331 q117 0 191 -62.5t88 -142t-23.5 -160.5t-121.5 -114l176 -254h-238l-160 240h-43v-240h-200zM700 750h125q51 0 72 38.5t-1 77.5t-73 39h-123v-155z" />
<glyph unicode="&#xb4;" horiz-adv-x="790" d="M205 1548l205 340h381l-269 -340h-317z" />
<glyph unicode="&#xb8;" horiz-adv-x="788" d="M102 -416l66 176q47 -33 94 -50t85 -11t48.5 43t-34 68.5t-121.5 37.5l104 234h256l-65 -145q78 -20 119.5 -75t36.5 -118t-35.5 -123.5t-99.5 -100.5t-155 -40q-172 0 -299 104z" />
<glyph unicode="&#xbb;" horiz-adv-x="1232" d="M57 274l215 314l-211 309l295 178l330 -487l-326 -488zM569 899l301 174l326 -485l-328 -490l-297 178l211 312z" />
<glyph unicode="&#x2c6;" horiz-adv-x="1026" d="M82 1548l315 344h240l307 -344h-332l-94 107l-90 -107h-346z" />
<glyph unicode="&#x2da;" horiz-adv-x="735" d="M98 1783.5q0 108.5 80 183.5t193 75q111 0 188.5 -79t77.5 -181q0 -104 -79 -179t-187 -75q-113 0 -193 73.5t-80 182zM293 1780q0 -27 21.5 -49.5t56.5 -22.5q31 0 52 19.5t21 52t-21.5 57.5t-51.5 25q-35 0 -56.5 -23.5t-21.5 -58.5z" />
<glyph unicode="&#x2dc;" horiz-adv-x="952" d="M102 1626q47 248 260 242q37 0 88.5 -22.5t85 -41t69.5 -8.5t59 64l186 -107q-29 -115 -83 -174t-130 -57q-51 0 -111.5 22.5t-98.5 40t-77.5 7t-68.5 -65.5z" />
<glyph unicode="&#x401;" d="M115 0v1450h1009v-344h-639v-225h588v-318h-588v-217h639v-346h-1009zM213 1708q0 74 50 124t122 50t122 -50t50 -124q0 -72 -50 -121t-122 -49t-122 49t-50 121zM707 1708q0 74 49 124t122.5 50t124 -50t50.5 -124q0 -72 -50.5 -121t-124 -49t-122.5 49t-49 121z" />
<glyph unicode="&#x410;" horiz-adv-x="1327" d="M-12 0l506 1450h333l519 -1450h-394l-94 291h-387l-90 -291h-393zM553 616h217l-100 424h-11z" />
<glyph unicode="&#x411;" horiz-adv-x="1261" d="M115 0v1450h991v-307h-623v-225h213q291 0 410 -109t119 -336q0 -217 -139.5 -345t-378.5 -128h-592zM483 322h213q166 0 166 170q0 160 -168 159h-211v-329z" />
<glyph unicode="&#x412;" horiz-adv-x="1282" d="M115 0v1450h581q213 0 345 -119.5t126 -322.5q-2 -59 -39.5 -129t-109.5 -107q133 -68 178 -180.5t27 -216.5q-59 -375 -516 -375h-592zM483 322h213q104 0 146.5 74.5t-0.5 148t-146 73.5h-213v-296zM483 883h213q84 0 120 64.5t1 129t-121 64.5h-213v-258z" />
<glyph unicode="&#x413;" horiz-adv-x="1044" d="M115 0v1450h903v-348h-535v-1102h-368z" />
<glyph unicode="&#x414;" horiz-adv-x="1527" d="M37 -291v621q47 0 85 9t65.5 33.5t48 46t35 67.5t23.5 76t15 92.5t9.5 95t7.5 107.5t6 108l35 485h946v-1120h176v-621h-369v291h-708v-291h-375zM606 330h338v772h-246l-30 -440q-12 -201 -62 -332z" />
<glyph unicode="&#x415;" d="M115 0v1450h1009v-344h-639v-225h588v-318h-588v-217h639v-346h-1009z" />
<glyph unicode="&#x416;" horiz-adv-x="1941" d="M-18 1450h442l362 -543v543h369v-543l363 543h442l-518 -713l516 -737h-457l-334 549l-12 -17v-532h-369v532l-12 17l-334 -549h-456l516 737z" />
<glyph unicode="&#x417;" horiz-adv-x="1167" d="M-2 264l233 182q129 -145 277 -145q233 0 233 156q0 78 -50 122t-138 44h-215v251h207q82 0 128 40t46 112q0 63 -47 100t-137 37q-125 0 -265 -102l-192 188q180 221 483 221q240 0 370 -110.5t130 -308.5q0 -78 -42 -160t-116 -119q207 -104 207 -338 q0 -215 -153.5 -334.5t-428.5 -119.5q-168 0 -308 75.5t-222 208.5z" />
<glyph unicode="&#x418;" horiz-adv-x="1402" d="M115 0v1450h368v-657l-30 -218l8 -2l121 261l370 616h336v-1450h-368v580l36 272l-10 2l-137 -283l-348 -571h-346z" />
<glyph unicode="&#x419;" horiz-adv-x="1402" d="M115 0v1450h368v-657l-30 -218l8 -2l121 261l370 616h336v-1450h-368v580l36 272l-10 2l-137 -283l-348 -571h-346zM322 1925h284q0 -37 24.5 -60.5t61.5 -23.5t61.5 23.5t24.5 60.5h285q0 -168 -108.5 -262t-262 -94t-262 94t-108.5 262z" />
<glyph unicode="&#x41a;" horiz-adv-x="1310" d="M115 0v1450h368v-537l394 537h456l-573 -713l571 -737h-461l-374 518l-13 -16v-502h-368z" />
<glyph unicode="&#x41b;" horiz-adv-x="1452" d="M35 0v342q49 -2 88 6t67.5 29.5t50 45t35 66.5t22.5 77t15 92.5t8.5 95.5t6.5 105.5t6 105.5l35 485h968v-1450h-368v1102h-269l-24 -440q-6 -106 -27.5 -203t-70 -189t-118 -155.5t-179 -96t-246.5 -18.5z" />
<glyph unicode="&#x41c;" horiz-adv-x="1574" d="M115 0v1450h366l305 -709l308 709h366v-1450h-368l2 418l22 293l-12 2l-191 -498h-251l-195 498l-10 -2l24 -293v-418h-366z" />
<glyph unicode="&#x41d;" horiz-adv-x="1384" d="M115 0v1450h368v-549h418v549h369v-1450h-369v547h-418v-547h-368z" />
<glyph unicode="&#x41e;" horiz-adv-x="1361" d="M80 477v496q0 236 177 366.5t423 130.5q244 0 423 -131t179 -366v-496q0 -236 -178 -366.5t-422 -130.5t-423 130.5t-179 366.5zM446 477q0 -76 70 -117t166 -41q94 0 163.5 42t69.5 116v496q0 80 -70.5 122t-168.5 42q-92 0 -161 -44t-69 -120v-496z" />
<glyph unicode="&#x41f;" horiz-adv-x="1374" d="M115 0v1450h1145v-1450h-369v1102h-408v-1102h-368z" />
<glyph unicode="&#x420;" horiz-adv-x="1265" d="M115 0v1450h579q250 0 390.5 -151.5t140.5 -360.5t-140.5 -361.5t-388.5 -152.5h-215v-424h-366zM481 750h213q63 0 106.5 36.5t53.5 90t0 105.5t-53 89t-107 37h-213v-358z" />
<glyph unicode="&#x421;" horiz-adv-x="1191" d="M80 475v500q0 158 85 272.5t214 168.5t278 54q154 0 292 -77.5t218 -255.5l-299 -121q-47 86 -150.5 109.5t-187.5 -20.5t-84 -130v-500q0 -63 52.5 -104t121 -48.5t137 25.5t97.5 105l320 -148q-57 -113 -148.5 -188.5t-184.5 -106t-190 -30.5q-231 0 -401 131t-170 364 z" />
<glyph unicode="&#x422;" horiz-adv-x="1198" d="M29 1104v348h1140v-348h-385v-1104h-370v1104h-385z" />
<glyph unicode="&#x423;" horiz-adv-x="1228" d="M-55 1450h415l144 -315l98 -263h10l109 283l131 295h408l-656 -1450h-395l213 469z" />
<glyph unicode="&#x424;" horiz-adv-x="1646" d="M53 600v250q0 242 173 361.5t423 119.5v119h348v-119q250 0 423 -119.5t173 -361.5v-250q0 -242 -173 -361.5t-423 -119.5v-119h-348v119q-250 0 -423 119.5t-173 361.5zM422 598q0 -147 227 -147v548q-227 0 -227 -147v-254zM997 451q228 0 228 147v254q0 147 -228 147 v-548z" />
<glyph unicode="&#x425;" horiz-adv-x="1343" d="M-6 0l407 723l-407 727h428l248 -496l254 496h426l-406 -727l406 -723h-426l-254 494l-248 -494h-428z" />
<glyph unicode="&#x426;" horiz-adv-x="1464" d="M115 0v1450h368v-1102h396v1102h368v-1102h176v-639h-348v291h-960z" />
<glyph unicode="&#x427;" horiz-adv-x="1308" d="M66 901v549h368v-549q0 -145 158 -149q156 0 231 69l2 629h369v-1450h-369v485q-39 -33 -110.5 -57.5t-153.5 -24.5q-205 0 -350 131.5t-145 366.5z" />
<glyph unicode="&#x428;" horiz-adv-x="2023" d="M115 0v1450h368v-1102h344v1102h369v-1102h344v1102h369v-1450h-1794z" />
<glyph unicode="&#x429;" horiz-adv-x="2125" d="M115 0v1450h368v-1102h344v1102h369v-1102h344v1102h369v-1102h176v-639h-348v291h-1622z" />
<glyph unicode="&#x42a;" horiz-adv-x="1462" d="M35 1102v348h645v-494h217q281 0 401.5 -118.5t120.5 -339.5q0 -219 -138 -358.5t-374 -139.5h-596v1102h-276zM680 322h217q162 0 162 180q0 80 -43 122t-119 42h-217v-344z" />
<glyph unicode="&#x42b;" horiz-adv-x="1873" d="M115 0v1450h368v-494h217q281 0 402 -118.5t121 -339.5q0 -219 -138.5 -358.5t-373.5 -139.5h-596zM483 322h217q162 0 162 180q0 80 -43 122t-119 42h-217v-344zM1393 0v1450h366v-1450h-366z" />
<glyph unicode="&#x42c;" horiz-adv-x="1265" d="M115 0v1450h368v-494h217q281 0 402 -118.5t121 -339.5q0 -219 -138.5 -358.5t-373.5 -139.5h-596zM483 322h217q162 0 162 180q0 80 -43 122t-119 42h-217v-344z" />
<glyph unicode="&#x42d;" d="M29 307l319 148q51 -127 213 -127q80 2 137.5 41.5t57.5 107.5v103h-322v305h322v86q0 72 -60.5 114.5t-144.5 42.5q-154 0 -217 -116l-299 121q80 178 218 257.5t292 79.5q150 0 279.5 -55t214.5 -171t85 -273v-494q0 -233 -171 -365t-402 -132q-96 0 -189.5 31.5 t-184.5 107.5t-148 188z" />
<glyph unicode="&#x42e;" horiz-adv-x="1994" d="M111 0v1450h368v-551h230v74q0 236 178 366.5t424 130.5q156 0 290 -53t224 -170t90 -274v-496q0 -236 -179.5 -366.5t-422.5 -130.5q-156 0 -290 53t-224 169.5t-90 274.5v86h-230v-563h-368zM1077 485q0 -74 70 -115.5t164 -41.5q96 0 165.5 41t69.5 116v473 q0 78 -69.5 121t-165.5 43q-94 -2 -164 -45t-70 -119v-473z" />
<glyph unicode="&#x42f;" horiz-adv-x="1323" d="M-66 0l443 524q-139 49 -217 151.5t-78 297.5q6 227 150.5 352t398.5 125h577v-1450h-368v487h-60l-389 -487h-457zM451 944q0 -74 44 -121t130 -47h215v326h-215q-84 0 -129 -41t-45 -117z" />
<glyph unicode="&#x430;" horiz-adv-x="1327" d="M-12 0l506 1450h333l519 -1450h-394l-94 291h-387l-90 -291h-393zM553 616h217l-100 424h-11z" />
<glyph unicode="&#x431;" horiz-adv-x="1261" d="M115 0v1450h991v-307h-623v-225h213q291 0 410 -109t119 -336q0 -217 -139.5 -345t-378.5 -128h-592zM483 322h213q166 0 166 170q0 160 -168 159h-211v-329z" />
<glyph unicode="&#x432;" horiz-adv-x="1282" d="M115 0v1450h581q213 0 345 -119.5t126 -322.5q-2 -59 -39.5 -129t-109.5 -107q133 -68 178 -180.5t27 -216.5q-59 -375 -516 -375h-592zM483 322h213q104 0 146.5 74.5t-0.5 148t-146 73.5h-213v-296zM483 883h213q84 0 120 64.5t1 129t-121 64.5h-213v-258z" />
<glyph unicode="&#x433;" horiz-adv-x="1044" d="M115 0v1450h903v-348h-535v-1102h-368z" />
<glyph unicode="&#x434;" horiz-adv-x="1478" d="M33 -291v621h131l379 1120h387l391 -1120h127v-621h-373v291h-669v-291h-373zM563 330h352l-100 391l-72 319h-8l-63 -323z" />
<glyph unicode="&#x435;" d="M115 0v1450h1009v-344h-639v-225h588v-318h-588v-217h639v-346h-1009z" />
<glyph unicode="&#x436;" horiz-adv-x="1941" d="M-18 1450h442l362 -543v543h369v-543l363 543h442l-518 -713l516 -737h-457l-334 549l-12 -17v-532h-369v532l-12 17l-334 -549h-456l516 737z" />
<glyph unicode="&#x437;" horiz-adv-x="1167" d="M-2 264l233 182q129 -145 277 -145q233 0 233 156q0 78 -50 122t-138 44h-215v251h207q82 0 128 40t46 112q0 63 -47 100t-137 37q-125 0 -265 -102l-192 188q180 221 483 221q240 0 370 -110.5t130 -308.5q0 -78 -42 -160t-116 -119q207 -104 207 -338 q0 -215 -153.5 -334.5t-428.5 -119.5q-168 0 -308 75.5t-222 208.5z" />
<glyph unicode="&#x438;" horiz-adv-x="1402" d="M115 0v1450h368v-657l-30 -218l8 -2l121 261l370 616h336v-1450h-368v580l36 272l-10 2l-137 -283l-348 -571h-346z" />
<glyph unicode="&#x439;" horiz-adv-x="1402" d="M115 0v1450h368v-657l-30 -218l8 -2l121 261l370 616h336v-1450h-368v580l36 272l-10 2l-137 -283l-348 -571h-346zM322 1925h284q0 -37 24.5 -60.5t61.5 -23.5t61.5 23.5t24.5 60.5h285q0 -168 -108.5 -262t-262 -94t-262 94t-108.5 262z" />
<glyph unicode="&#x43a;" horiz-adv-x="1310" d="M115 0v1450h368v-537l394 537h456l-573 -713l571 -737h-461l-374 518l-13 -16v-502h-368z" />
<glyph unicode="&#x43b;" horiz-adv-x="1298" d="M-10 0l487 1450h338l500 -1450h-393l-183 616l-84 424h-12l-88 -424l-172 -616h-393z" />
<glyph unicode="&#x43c;" horiz-adv-x="1574" d="M115 0v1450h366l305 -709l308 709h366v-1450h-368l2 418l22 293l-12 2l-191 -498h-251l-195 498l-10 -2l24 -293v-418h-366z" />
<glyph unicode="&#x43d;" horiz-adv-x="1384" d="M115 0v1450h368v-549h418v549h369v-1450h-369v547h-418v-547h-368z" />
<glyph unicode="&#x43e;" horiz-adv-x="1361" d="M80 477v496q0 236 177 366.5t423 130.5q244 0 423 -131t179 -366v-496q0 -236 -178 -366.5t-422 -130.5t-423 130.5t-179 366.5zM446 477q0 -76 70 -117t166 -41q94 0 163.5 42t69.5 116v496q0 80 -70.5 122t-168.5 42q-92 0 -161 -44t-69 -120v-496z" />
<glyph unicode="&#x43f;" horiz-adv-x="1374" d="M115 0v1450h1145v-1450h-369v1102h-408v-1102h-368z" />
<glyph unicode="&#x440;" horiz-adv-x="1265" d="M115 0v1450h579q250 0 390.5 -151.5t140.5 -360.5t-140.5 -361.5t-388.5 -152.5h-215v-424h-366zM481 750h213q63 0 106.5 36.5t53.5 90t0 105.5t-53 89t-107 37h-213v-358z" />
<glyph unicode="&#x441;" horiz-adv-x="1191" d="M80 475v500q0 158 85 272.5t214 168.5t278 54q154 0 292 -77.5t218 -255.5l-299 -121q-47 86 -150.5 109.5t-187.5 -20.5t-84 -130v-500q0 -63 52.5 -104t121 -48.5t137 25.5t97.5 105l320 -148q-57 -113 -148.5 -188.5t-184.5 -106t-190 -30.5q-231 0 -401 131t-170 364 z" />
<glyph unicode="&#x442;" horiz-adv-x="1198" d="M29 1104v348h1140v-348h-385v-1104h-370v1104h-385z" />
<glyph unicode="&#x443;" horiz-adv-x="1228" d="M-55 1450h415l144 -315l98 -263h10l109 283l131 295h408l-656 -1450h-395l213 469z" />
<glyph unicode="&#x444;" horiz-adv-x="1646" d="M53 600v250q0 242 173 361.5t423 119.5v119h348v-119q250 0 423 -119.5t173 -361.5v-250q0 -242 -173 -361.5t-423 -119.5v-119h-348v119q-250 0 -423 119.5t-173 361.5zM422 598q0 -147 227 -147v548q-227 0 -227 -147v-254zM997 451q228 0 228 147v254q0 147 -228 147 v-548z" />
<glyph unicode="&#x445;" horiz-adv-x="1343" d="M-6 0l407 723l-407 727h428l248 -496l254 496h426l-406 -727l406 -723h-426l-254 494l-248 -494h-428z" />
<glyph unicode="&#x446;" horiz-adv-x="1464" d="M115 0v1450h368v-1102h396v1102h368v-1102h176v-639h-348v291h-960z" />
<glyph unicode="&#x447;" horiz-adv-x="1308" d="M66 901v549h368v-549q0 -145 158 -149q156 0 231 69l2 629h369v-1450h-369v485q-39 -33 -110.5 -57.5t-153.5 -24.5q-205 0 -350 131.5t-145 366.5z" />
<glyph unicode="&#x448;" horiz-adv-x="2023" d="M115 0v1450h368v-1102h344v1102h369v-1102h344v1102h369v-1450h-1794z" />
<glyph unicode="&#x449;" horiz-adv-x="2125" d="M115 0v1450h368v-1102h344v1102h369v-1102h344v1102h369v-1102h176v-639h-348v291h-1622z" />
<glyph unicode="&#x44a;" horiz-adv-x="1462" d="M35 1102v348h645v-494h217q281 0 401.5 -118.5t120.5 -339.5q0 -219 -138 -358.5t-374 -139.5h-596v1102h-276zM680 322h217q162 0 162 180q0 80 -43 122t-119 42h-217v-344z" />
<glyph unicode="&#x44b;" horiz-adv-x="1873" d="M115 0v1450h368v-494h217q281 0 402 -118.5t121 -339.5q0 -219 -138.5 -358.5t-373.5 -139.5h-596zM483 322h217q162 0 162 180q0 80 -43 122t-119 42h-217v-344zM1393 0v1450h366v-1450h-366z" />
<glyph unicode="&#x44c;" horiz-adv-x="1265" d="M115 0v1450h368v-494h217q281 0 402 -118.5t121 -339.5q0 -219 -138.5 -358.5t-373.5 -139.5h-596zM483 322h217q162 0 162 180q0 80 -43 122t-119 42h-217v-344z" />
<glyph unicode="&#x44d;" d="M29 307l319 148q51 -127 213 -127q80 2 137.5 41.5t57.5 107.5v103h-322v305h322v86q0 72 -60.5 114.5t-144.5 42.5q-154 0 -217 -116l-299 121q80 178 218 257.5t292 79.5q150 0 279.5 -55t214.5 -171t85 -273v-494q0 -233 -171 -365t-402 -132q-96 0 -189.5 31.5 t-184.5 107.5t-148 188z" />
<glyph unicode="&#x44e;" horiz-adv-x="1994" d="M111 0v1450h368v-551h230v74q0 236 178 366.5t424 130.5q156 0 290 -53t224 -170t90 -274v-496q0 -236 -179.5 -366.5t-422.5 -130.5q-156 0 -290 53t-224 169.5t-90 274.5v86h-230v-563h-368zM1077 485q0 -74 70 -115.5t164 -41.5q96 0 165.5 41t69.5 116v473 q0 78 -69.5 121t-165.5 43q-94 -2 -164 -45t-70 -119v-473z" />
<glyph unicode="&#x44f;" horiz-adv-x="1323" d="M-66 0l443 524q-139 49 -217 151.5t-78 297.5q6 227 150.5 352t398.5 125h577v-1450h-368v487h-60l-389 -487h-457zM451 944q0 -74 44 -121t130 -47h215v326h-215q-84 0 -129 -41t-45 -117z" />
<glyph unicode="&#x451;" d="M115 0v1450h1009v-344h-639v-225h588v-318h-588v-217h639v-346h-1009zM213 1708q0 74 50 124t122 50t122 -50t50 -124q0 -72 -50 -121t-122 -49t-122 49t-50 121zM707 1708q0 74 49 124t122.5 50t124 -50t50.5 -124q0 -72 -50.5 -121t-124 -49t-122.5 49t-49 121z" />
<glyph unicode="&#x2000;" horiz-adv-x="1021" />
<glyph unicode="&#x2001;" horiz-adv-x="2042" />
<glyph unicode="&#x2002;" horiz-adv-x="1021" />
<glyph unicode="&#x2003;" horiz-adv-x="2042" />
<glyph unicode="&#x2004;" horiz-adv-x="680" />
<glyph unicode="&#x2005;" horiz-adv-x="510" />
<glyph unicode="&#x2006;" horiz-adv-x="340" />
<glyph unicode="&#x2007;" horiz-adv-x="340" />
<glyph unicode="&#x2008;" horiz-adv-x="255" />
<glyph unicode="&#x2009;" horiz-adv-x="408" />
<glyph unicode="&#x200a;" horiz-adv-x="113" />
<glyph unicode="&#x2010;" horiz-adv-x="827" d="M94 420v348h639v-348h-639z" />
<glyph unicode="&#x2011;" horiz-adv-x="827" d="M94 420v348h639v-348h-639z" />
<glyph unicode="&#x2012;" horiz-adv-x="827" d="M94 420v348h639v-348h-639z" />
<glyph unicode="&#x2013;" horiz-adv-x="1169" d="M94 420v346h981v-346h-981z" />
<glyph unicode="&#x2014;" horiz-adv-x="1777" d="M94 420v346h1589v-346h-1589z" />
<glyph unicode="&#x2018;" horiz-adv-x="634" d="M47 1008l232 444h321l-139 -444h-414z" />
<glyph unicode="&#x2019;" horiz-adv-x="612" d="M59 1024l119 422h414l-211 -422h-322z" />
<glyph unicode="&#x201a;" horiz-adv-x="604" d="M-18 -213l151 449h399l-239 -449h-311z" />
<glyph unicode="&#x201c;" horiz-adv-x="1114" d="M47 1008l232 444h321l-139 -444h-414zM526 1008l232 444h321l-139 -444h-414z" />
<glyph unicode="&#x201d;" horiz-adv-x="1085" d="M59 1024l119 422h414l-211 -422h-322zM532 1024l119 422h414l-211 -422h-322z" />
<glyph unicode="&#x201e;" horiz-adv-x="1058" d="M-20 -213l151 426h399l-239 -426h-311zM438 -213l150 426h401l-239 -426h-312z" />
<glyph unicode="&#x2026;" horiz-adv-x="1607" d="M59 195q0 84 59.5 143t147.5 59q84 0 143.5 -59t59.5 -143q0 -86 -59.5 -146.5t-143.5 -60.5q-88 0 -147.5 60.5t-59.5 146.5zM602 195q0 84 58.5 143t142.5 59q88 0 147.5 -59t59.5 -143q0 -86 -59.5 -146.5t-147.5 -60.5q-84 0 -142.5 60.5t-58.5 146.5zM1141 195 q0 84 58 143t144 59q88 0 146.5 -58t58.5 -144t-58 -146.5t-147 -60.5q-86 0 -144 60.5t-58 146.5z" />
<glyph unicode="&#x202f;" horiz-adv-x="408" />
<glyph unicode="&#x2039;" horiz-adv-x="722" d="M39 588l328 487l295 -178l-211 -307q33 -49 107.5 -161t103.5 -157l-297 -174z" />
<glyph unicode="&#x203a;" horiz-adv-x="722" d="M59 272l211 316l-209 309l297 176l326 -485l-322 -488z" />
<glyph unicode="&#x205f;" horiz-adv-x="510" />
<glyph unicode="&#x20ac;" horiz-adv-x="1320" d="M51 457l45 221h82v63h-127l45 222h82v8q0 233 169 366t403 133q154 0 292 -79.5t218 -257.5l-299 -121q-47 86 -150.5 109.5t-187.5 -20.5t-84 -130v-8h364l-47 -222h-317v-63h364l-47 -221h-315q12 -76 96 -114t178 -8t131 120l320 -148q-57 -113 -148.5 -188.5 t-184.5 -107t-190 -31.5q-225 0 -391 125.5t-174 351.5h-127z" />
<glyph unicode="&#x2122;" horiz-adv-x="1767" d="M59 1120v332h703v-332h-184v-528h-338v528h-181zM821 596v856h281l141 -270l146 270h272v-856h-305l6 244l-86 -150h-51l-92 152l4 -246h-316z" />
<glyph unicode="&#x25fc;" horiz-adv-x="1454" d="M0 0v1454h1454v-1454h-1454z" />
</font>
</defs>
</svg>
